<?xml version="1.0" encoding="UTF-8" standalone="no"?>
<!-- Created with Inkscape (http://www.inkscape.org/) -->

<svg
   width="210mm"
   height="297mm"
   viewBox="0 0 210 297"
   version="1.1"
   id="svg1"
   xml:space="preserve"
   inkscape:version="1.3.2 (091e20e, 2023-11-25, custom)"
   sodipodi:docname="cutpurse.svg"
   xmlns:inkscape="http://www.inkscape.org/namespaces/inkscape"
   xmlns:sodipodi="http://sodipodi.sourceforge.net/DTD/sodipodi-0.dtd"
   xmlns="http://www.w3.org/2000/svg"
   xmlns:svg="http://www.w3.org/2000/svg"><sodipodi:namedview
     id="namedview1"
     pagecolor="#505050"
     bordercolor="#eeeeee"
     borderopacity="1"
     inkscape:showpageshadow="0"
     inkscape:pageopacity="0"
     inkscape:pagecheckerboard="0"
     inkscape:deskcolor="#d1d1d1"
     inkscape:document-units="mm"
     inkscape:zoom="0.25669573"
     inkscape:cx="261.00941"
     inkscape:cy="342.81832"
     inkscape:window-width="1350"
     inkscape:window-height="1050"
     inkscape:window-x="121"
     inkscape:window-y="219"
     inkscape:window-maximized="0"
     inkscape:current-layer="layer1" /><defs
     id="defs1" /><g
     inkscape:label="Layer 1"
     inkscape:groupmode="layer"
     id="layer1"><g
       id="g1"
       transform="matrix(0.41341065,0,0,0.41341065,-0.88124725,42.484252)"
       inkscape:transform-center-x="-11.296933"
       inkscape:transform-center-y="-0.36441718"><path
         id="path1"
         style="fill:#c9d2d9"
         d="m 216.25457,19.987482 c -32.53573,0 -59.00262,26.469154 -59.00262,59.003866 0,32.534732 26.46789,59.002612 59.00262,59.002612 10.3613,0 20.01665,-2.79855 28.44506,-7.55751 -2.38461,-22.38805 -4.78099,-44.777563 -7.94002,-67.072633 -1.6853,-12.734789 -3.36173,-25.48688 -4.00376,-38.326325 -0.0468,-0.935461 0.003,-1.775338 0.095,-2.568755 -5.25809,-1.58775 -10.81398,-2.481255 -16.59628,-2.481255 z m 92.80643,1.723754 c 0.30542,1.089488 0.36183,2.42975 0.74875,3.437506 2.33502,13.183378 2.78179,26.550772 3.24126,39.910078 0.10807,2.394773 0.21571,4.790042 0.325,7.185014 0.77365,2.108158 1.2175,4.37457 1.2175,6.747514 0,1.775268 -0.25819,3.487951 -0.70125,5.12501 0.62824,14.868575 1.10179,29.742722 0.84375,44.628832 -0.0373,1.95979 -0.12481,3.91804 -0.18,5.87752 22.91129,-8.10829 39.37258,-29.97759 39.37258,-55.631362 0,-27.662379 -19.13895,-50.928533 -44.86759,-57.280112 z m -92.80643,37.611323 c 10.84491,0 19.66754,8.823879 19.66754,19.668789 0,10.844901 -8.82263,19.667538 -19.66754,19.667538 -10.84491,0 -19.66879,-8.822637 -19.66879,-19.667538 0,-10.84491 8.82388,-19.668789 19.66879,-19.668789 z" /><path
         id="path2"
         style="fill:#b7c4cc"
         d="m 309.061,21.711236 c 0.30542,1.089488 0.36183,2.42975 0.74875,3.437506 2.33502,13.183378 2.78179,26.550772 3.24126,39.910078 0.10807,2.394773 0.21571,4.790042 0.325,7.185014 0.77365,2.108159 1.2175,4.374565 1.2175,6.747514 0,1.775271 -0.25819,3.48795 -0.70125,5.12501 0.62824,14.868575 1.10179,29.742722 0.84375,44.628832 -0.0373,1.95979 -0.12481,3.91804 -0.18,5.87752 22.9113,-8.10828 39.37258,-29.97754 39.37258,-55.631362 0,-27.662433 -19.13892,-50.928546 -44.86759,-57.280112 z" /><path
         id="path3"
         style="fill:#736056"
         d="M 71.373036,118.32642 7.220411,310.79805 c -14.1748154,42.49048 -7.27312279,87.69826 18.912537,124.03774 26.185662,36.33961 66.891505,57.17762 111.693972,57.17762 h 44.01633 c -4.02058,-5.45475 -2.84037,-14.50947 -2.70875,-20.02254 1.9708,-16.29272 5.9952,-32.19602 10.74752,-47.89635 0.26712,-3.87249 0.57328,-7.78989 0.57625,-7.82501 1.06955,-12.70489 2.63174,-25.33618 4.28626,-37.97508 1.41477,-12.89191 3.68494,-25.59978 7.30626,-38.04632 3.54181,-12.17324 11.61868,-16.20114 17.68254,-14.05253 0.88411,-11.91702 2.08005,-23.83254 1.8025,-35.79507 -0.22,-9.48229 3.33128,-15.30558 7.81502,-17.50003 -0.0143,-0.29984 -0.007,-0.6002 -0.0225,-0.9 -0.67274,-13.09484 5.89762,-20.10004 12.44627,-20.09754 0.37351,1.4e-4 0.74298,0.0878 1.115,0.13375 0.93636,-1.92291 2.46879,-3.04507 4.19126,-3.02001 0.52061,0.008 1.05666,0.12011 1.595,0.33875 -0.26323,-10.75655 -0.55266,-21.51258 -0.77375,-32.27006 -0.36888,-21.33132 -0.69929,-42.66487 -0.8725,-63.99888 -0.52447,-5.34156 -0.98831,-10.68873 -1.60875,-16.02128 -0.66594,-6.24741 -1.36405,-12.49193 -2.03876,-18.73879 z m 243.380474,0 c 0.0111,3.47258 0.0427,6.94501 -0.0175,10.41877 -0.36191,19.03433 -1.51985,38.06362 -4.43001,56.89762 -2.43754,15.96438 -5.12635,31.88304 -10.13002,47.29009 -3.32631,10.9124 -7.28918,21.74212 -8.71001,33.11756 -0.88165,7.05864 -3.55427,11.81516 -6.83752,14.44128 0.0602,0.83892 0.15386,1.68024 0.2,2.51751 0.13089,5.11774 0.3556,10.23291 0.5725,15.34753 0.11775,2.77431 -0.45021,4.89972 -1.3625,6.46626 0.30633,4.03064 0.62478,8.06043 0.88125,12.09502 0.51595,8.11584 -4.57457,11.76501 -8.37876,9.79127 1.16635,15.16335 1.5678,30.37278 1.84875,45.57384 0.36453,15.00168 0.40508,29.99223 -0.28,44.98259 -0.7301,11.20949 -2.03228,22.36892 -2.83375,33.57381 -0.68097,9.37356 -0.7643,18.77419 -1.22126,28.15756 -0.21711,4.34342 -0.48044,8.68233 -0.80375,13.01628 h 100.9352 c 44.78935,0 85.49673,-20.84001 111.68147,-57.17262 26.18461,-36.33248 33.0844,-81.54526 18.92253,-124.04274 L 440.62751,118.32642 Z M 251.00214,491.8209 c 0.004,0.064 6.4e-4,0.12854 0.005,0.19251 h 0.0675 c -0.0252,-0.0625 -0.0483,-0.12856 -0.0725,-0.19251 z" /><path
         id="path4"
         style="fill:#665247"
         d="m 314.75351,118.32642 c 0.0111,3.47258 0.0427,6.945 -0.0175,10.41877 -0.36191,19.03434 -1.51985,38.0636 -4.43001,56.89762 -2.43755,15.9644 -5.12635,31.88303 -10.13002,47.29009 -3.32632,10.91241 -7.28918,21.74211 -8.71001,33.11756 -0.88051,7.04957 -3.54757,11.80303 -6.82502,14.43128 0.0542,0.84231 0.14118,1.68701 0.1875,2.52751 0.13089,5.11779 0.35555,10.23291 0.5725,15.34753 0.11775,2.77436 -0.45021,4.89972 -1.3625,6.46626 0.30633,4.03064 0.62478,8.06038 0.88125,12.09502 0.51415,8.08757 -4.54018,11.74276 -8.34001,9.81502 1.16475,15.15491 1.52921,30.3575 1.81,45.55009 0.36453,15.00173 0.40508,29.99218 -0.28,44.98259 -0.7301,11.20954 -2.03223,22.36882 -2.83375,33.57381 -0.68097,9.37356 -0.7643,18.77414 -1.22126,28.15756 -0.21711,4.34342 -0.48044,8.68233 -0.80375,13.01628 h 100.9327 c 44.7896,0 85.49663,-20.83986 111.68147,-57.17262 26.18576,-36.33268 33.08695,-81.54506 18.92503,-124.04274 L 440.62751,118.32642 Z" /><path
         id="path5"
         style="fill:#b37548"
         d="m 150.83444,118.32642 -32.57381,195.46039 c -9.76987,58.60522 2.7407,122.37319 30.43631,155.0628 10.9436,12.92375 22.28637,18.87018 32.08131,21.42504 -2.73257,-5.49428 -1.76216,-13.32383 -1.64375,-18.28378 1.9708,-16.29272 5.9952,-32.19602 10.74752,-47.89635 0.26712,-3.87249 0.57328,-7.78989 0.57625,-7.82501 1.06955,-12.70489 2.63174,-25.33618 4.28626,-37.97508 1.41477,-12.89191 3.68494,-25.59978 7.30626,-38.04632 3.54181,-12.17324 11.61868,-16.20114 17.68254,-14.05253 0.88411,-11.91702 2.08005,-23.83254 1.8025,-35.79507 -0.22,-9.48229 3.33128,-15.30558 7.81502,-17.50003 -0.0143,-0.29984 -0.007,-0.6002 -0.0225,-0.9 -0.67274,-13.09484 5.89762,-20.10004 12.44627,-20.09754 0.37351,1.4e-4 0.74298,0.0878 1.115,0.13375 0.93636,-1.92291 2.46879,-3.04507 4.19126,-3.02001 0.52061,0.008 1.05666,0.12011 1.595,0.33875 -0.26323,-10.75655 -0.55266,-21.51258 -0.77375,-32.27006 -0.36888,-21.33132 -0.69929,-42.66487 -0.8725,-63.99888 -0.52447,-5.34156 -0.98831,-10.68873 -1.60875,-16.02128 -0.66594,-6.24741 -1.36405,-12.49193 -2.03876,-18.73879 z m 163.91907,0 c 0.0111,3.47258 0.0427,6.94501 -0.0175,10.41877 -0.36191,19.03433 -1.51985,38.06362 -4.43001,56.89762 -2.43754,15.96438 -5.12635,31.88304 -10.13002,47.29009 -3.32631,10.9124 -7.28918,21.74212 -8.71001,33.11756 -0.88051,7.04957 -3.54757,11.80303 -6.82502,14.43128 0.0542,0.84231 0.14118,1.68701 0.1875,2.52751 0.13089,5.11774 0.3556,10.23291 0.5725,15.34753 0.11775,2.77431 -0.45021,4.89972 -1.3625,6.46626 0.30633,4.03064 0.62478,8.06043 0.88125,12.09502 0.51415,8.08752 -4.54023,11.74276 -8.34001,9.81502 1.16475,15.15486 1.52921,30.3576 1.81,45.55009 0.36453,15.00168 0.40508,29.99223 -0.28,44.98259 -0.7301,11.20949 -2.03228,22.36892 -2.83375,33.57381 -0.68097,9.37356 -0.7643,18.77419 -1.22126,28.15756 -0.21711,4.34342 -0.48044,8.68233 -0.80375,13.01628 h 45.12009 c 11.54987,0 28.72072,-4.02106 44.93259,-23.1638 27.69561,-32.68961 40.20518,-96.45658 30.43631,-155.0628 L 361.1636,118.32642 Z m -63.75512,373.48323 c 0.004,0.0678 0.004,0.13596 0.009,0.20376 h 0.0675 c -0.0267,-0.0661 -0.0507,-0.13604 -0.0762,-0.20376 z" /><path
         id="path6"
         style="fill:#a6673a"
         d="m 314.75351,118.32642 c 0.0111,3.47258 0.0427,6.945 -0.0175,10.41877 -0.36191,19.03434 -1.51985,38.0636 -4.43001,56.89762 -2.43755,15.9644 -5.12635,31.88303 -10.13002,47.29009 -3.32632,10.91241 -7.28918,21.74211 -8.71001,33.11756 -0.88051,7.04957 -3.54757,11.80303 -6.82502,14.43128 0.0542,0.84231 0.14118,1.68701 0.1875,2.52751 0.13089,5.11779 0.35555,10.23291 0.5725,15.34753 0.11827,2.7866 -0.43914,4.94821 -1.35875,6.51626 0.30518,4.01397 0.62209,8.02706 0.8775,12.04502 0.51415,8.08757 -4.54018,11.74276 -8.34001,9.81502 1.16475,15.15491 1.52921,30.3575 1.81,45.55009 0.36453,15.00173 0.40508,29.99218 -0.28,44.98259 -0.7301,11.20954 -2.03223,22.36882 -2.83375,33.57381 -0.68097,9.37356 -0.7643,18.77414 -1.22126,28.15756 -0.21711,4.34342 -0.48044,8.68233 -0.80375,13.01628 h 45.11884 c 11.54992,0 28.72067,-4.02096 44.93259,-23.1638 27.69576,-32.68976 40.20523,-96.45628 30.43631,-155.0628 L 361.1636,118.32642 Z" /><path
         id="path7"
         style="fill:#d7ebff"
         d="m 84.485562,98.658886 c -10.861923,0 -19.668788,8.805674 -19.668788,19.667534 v 19.66879 H 245.51963 c -0.0357,-0.30974 -0.0627,-0.62029 -0.0987,-0.93 -1.36495,-12.80523 -2.72291,-25.61268 -4.19376,-38.406324 z m 229.946698,0 c 0.31034,10.024624 0.47768,20.052854 0.30375,30.086304 -0.0586,3.08431 -0.17798,6.1668 -0.2825,9.25002 h 132.73026 v -19.66879 c -10e-4,-10.86386 -8.80461,-19.667534 -19.66754,-19.667534 z" /><path
         id="path8"
         style="fill:#c4e2ff"
         d="m 314.43226,98.658886 c 0.31034,10.024624 0.47768,20.052854 0.30375,30.086304 -0.0586,3.08431 -0.17798,6.1668 -0.2825,9.25002 h 132.73026 v -19.66879 c -10e-4,-10.86388 -8.8046,-19.667534 -19.66754,-19.667534 z" /></g></g></svg>
