<?xml version="1.0" encoding="UTF-8" standalone="no"?>
<!-- Created with Inkscape (http://www.inkscape.org/) -->

<svg
   width="210mm"
   height="297mm"
   viewBox="0 0 210 297"
   version="1.1"
   id="svg1"
   sodipodi:docname="stitchedpurse.svg"
   xml:space="preserve"
   inkscape:version="1.3.2 (091e20e, 2023-11-25, custom)"
   xmlns:inkscape="http://www.inkscape.org/namespaces/inkscape"
   xmlns:sodipodi="http://sodipodi.sourceforge.net/DTD/sodipodi-0.dtd"
   xmlns="http://www.w3.org/2000/svg"
   xmlns:svg="http://www.w3.org/2000/svg"><sodipodi:namedview
     id="namedview1"
     pagecolor="#505050"
     bordercolor="#eeeeee"
     borderopacity="1"
     inkscape:showpageshadow="0"
     inkscape:pageopacity="0"
     inkscape:pagecheckerboard="0"
     inkscape:deskcolor="#d1d1d1"
     inkscape:document-units="mm"
     inkscape:zoom="0.25669573"
     inkscape:cx="664.21049"
     inkscape:cy="541.49712"
     inkscape:window-width="1350"
     inkscape:window-height="1050"
     inkscape:window-x="121"
     inkscape:window-y="317"
     inkscape:window-maximized="0"
     inkscape:current-layer="layer1" /><defs
     id="defs1" /><g
     inkscape:label="Layer 1"
     inkscape:groupmode="layer"
     id="layer1"><g
       id="g1"
       transform="matrix(0.41341065,0,0,0.41341065,-0.88124725,42.484252)"><path
         style="fill:#c9d2d9"
         d="m 294.925,19.988 c -15.166,0 -28.872,5.911 -39.335,15.346 -10.463,-9.435 -24.169,-15.346 -39.335,-15.346 -32.536,0 -59.003,26.468 -59.003,59.003 0,32.535 26.468,59.003 59.003,59.003 15.166,0 28.872,-5.911 39.335,-15.346 10.463,9.435 24.169,15.346 39.335,15.346 32.536,0 59.003,-26.468 59.003,-59.003 0,-32.535 -26.468,-59.003 -59.003,-59.003 z m -78.671,78.671 c -10.845,0 -19.668,-8.823 -19.668,-19.668 0,-10.845 8.823,-19.668 19.668,-19.668 10.845,0 19.668,8.823 19.668,19.668 0,10.845 -8.823,19.668 -19.668,19.668 z m 78.671,0 c -10.845,0 -19.668,-8.823 -19.668,-19.668 0,-10.845 8.823,-19.668 19.668,-19.668 10.845,0 19.668,8.823 19.668,19.668 0,10.845 -8.823,19.668 -19.668,19.668 z"
         id="path1" /><path
         style="fill:#b7c4cc"
         d="m 294.925,137.994 c 32.536,0 59.003,-26.468 59.003,-59.003 0,-32.535 -26.468,-59.003 -59.003,-59.003 -15.166,0 -28.872,5.911 -39.335,15.346 v 87.314 c 10.463,9.435 24.167,15.346 39.335,15.346 z m 0,-78.671 c 10.845,0 19.668,8.823 19.668,19.668 0,10.845 -8.823,19.668 -19.668,19.668 -10.845,0 -19.668,-8.823 -19.668,-19.668 0,-10.845 8.822,-19.668 19.668,-19.668 z"
         id="path2" /><path
         style="fill:#736056"
         d="M 504.79,310.798 440.627,118.327 H 71.373 L 7.22,310.798 c -14.175,42.491 -7.273,87.698 18.913,124.038 26.186,36.34 66.891,57.178 111.694,57.178 h 236.359 c 44.79,0 85.496,-20.84 111.681,-57.173 26.185,-36.333 33.085,-81.545 18.923,-124.043 z"
         id="path3" /><path
         style="fill:#665247"
         d="M 504.79,310.798 440.627,118.327 H 255.589 v 373.687 h 118.595 c 44.79,0 85.496,-20.84 111.681,-57.173 26.186,-36.333 33.087,-81.545 18.925,-124.043 z"
         id="path4" /><path
         style="fill:#b37548"
         d="M 361.163,118.326 H 150.835 l -32.574,195.461 c -9.77,58.606 2.74,122.373 30.436,155.063 16.21,19.143 33.381,23.163 44.932,23.163 h 124.742 c 11.55,0 28.72,-4.02 44.932,-23.163 27.696,-32.69 40.206,-96.456 30.437,-155.063 z"
         id="path5" /><path
         style="fill:#a6673a"
         d="M 361.163,118.326 H 255.589 v 373.687 h 62.781 c 11.55,0 28.72,-4.02 44.932,-23.163 27.696,-32.69 40.206,-96.456 30.437,-155.063 z"
         id="path6" /><path
         style="fill:#d7ebff"
         d="M 427.516,98.659 H 84.485 c -10.862,0 -19.668,8.806 -19.668,19.668 v 19.668 h 382.367 v -19.668 c -0.001,-10.864 -8.805,-19.668 -19.668,-19.668 z"
         id="path7" /><path
         style="fill:#c4e2ff"
         d="M 427.516,98.659 H 255.589 v 39.336 h 191.595 v -19.668 c -0.001,-10.864 -8.805,-19.668 -19.668,-19.668 z"
         id="path8" /></g><path
       style="fill:none;fill-opacity:1;stroke:none;stroke-width:0.413279"
       id="path25"
       d="m 120.95302,145.13189 c -0.19081,0.50544 -0.39886,1.00471 -0.57243,1.51632 -1.3783,4.06274 -2.59541,8.14687 -4.14918,12.15363 -1.78316,4.59828 -3.03414,7.34108 -5.01528,11.89151 -3.50945,7.96593 -1.77559,4.10736 -5.19231,11.57986 0,0 0.68582,0.38715 0.68582,0.38715 v 0 c 3.38576,-7.49 1.65936,-3.6269 5.17317,-11.592 1.96512,-4.49171 3.2627,-7.34219 5.05189,-11.87621 1.57309,-3.98637 2.8226,-8.05775 4.26927,-12.08509 0.18158,-0.5055 0.401,-0.99661 0.60151,-1.49491 z" /><path
       style="fill:#2f0000;fill-opacity:1;stroke:none;stroke-width:0.413279"
       id="path26"
       d="m 105.90375,247.44026 c -0.45958,-4.34966 -0.89888,-8.70052 -1.27289,-13.05888 -0.40657,-4.21122 -0.73269,-8.42882 -0.90476,-12.65618 -0.0937,-2.93694 -0.0962,-5.87591 -0.0916,-8.81405 0.004,-2.56729 0.0176,-5.13451 0.016,-7.70181 0.0426,-2.67101 -0.0392,-5.33773 -0.16305,-8.00524 -0.0935,-1.97374 -0.13191,-3.94924 -0.15295,-5.92486 -0.0528,-2.2806 -0.0466,-4.56193 -0.0445,-6.84297 -0.0688,-2.13312 0.0797,-4.25878 0.24302,-6.38359 0.0739,-1.56008 0.17147,-3.11529 0.30491,-4.6716 0.15899,-1.59609 0.12258,-3.203 0.24295,-4.8007 0.12299,-1.52685 0.30144,-3.0475 0.44732,-4.5721 0.17528,-1.70668 0.14181,-3.42633 0.28418,-5.13423 0.14284,-1.1325 0.26695,-2.26518 0.30043,-3.40642 0.12858,-1.33713 0.25275,-2.67396 0.3384,-4.01468 0.1669,-1.5748 0.28409,-3.15369 0.34904,-4.73582 0.14438,-1.67375 0.2528,-3.34987 0.46816,-5.01635 0.16635,-1.2234 0.28785,-2.45061 0.32166,-3.6848 0.022,-1.49171 0.009,-2.98364 0.0176,-4.47548 0.0121,-1.12788 0.009,-2.25581 0.011,-3.38372 -0.01,-1.31654 -0.0152,-2.63314 -0.011,-3.94971 0.008,-1.19382 0.007,-2.38766 0.004,-3.5815 -0.005,-1.25322 -0.003,-2.50646 0.004,-3.75967 0.0501,-0.98745 -0.02,-1.96154 -0.15071,-2.93886 -0.17857,-1.4567 -0.19734,-2.92698 -0.21887,-4.3926 -0.0208,-1.5903 -0.008,-3.1807 -0.0121,-4.77107 0.007,-1.28619 0.0109,-2.57239 0.0165,-3.85858 0.005,-0.96226 -0.002,-1.92451 -0.003,-2.88678 0,0 -2.58925,-1.319297 -2.58925,-1.319297 v 0 c -0.002,0.96094 -0.009,1.921857 -0.004,2.882787 0.005,1.29111 0.007,2.58223 0.0124,3.87333 -0.005,1.59268 0.005,3.18538 0.0167,4.77801 0.0192,1.46673 0.0261,2.9365 0.15583,4.39859 0.12309,0.96951 0.23875,1.92966 0.17935,2.91086 0.007,1.25451 0.009,2.50905 0.004,3.76357 -0.003,1.19514 -0.004,2.39029 0.004,3.58543 0.004,1.3131 -0.001,2.62621 -0.01,3.93929 0.003,1.13271 0.003,2.26543 0.0174,3.39808 0.009,1.48595 0.007,2.97214 -0.0316,4.45771 -0.0455,1.22816 -0.12477,2.45487 -0.28465,3.67419 -0.19999,1.67692 -0.3212,3.36007 -0.46894,5.04232 -0.0686,1.57634 -0.17183,3.15069 -0.37883,4.71581 -0.0663,1.34403 -0.18711,2.68281 -0.33961,4.01977 -0.0558,1.13734 -0.15239,2.27071 -0.28409,3.40191 -0.12758,1.71044 -0.0675,3.43269 -0.26007,5.14023 -0.15678,1.52348 -0.35686,3.04153 -0.46765,4.5697 -0.11575,1.59847 -0.0746,3.20575 -0.23249,4.8026 -0.13068,1.55779 -0.26244,3.11344 -0.306,4.67683 -0.1219,2.14076 -0.25416,4.28121 -0.20003,6.42698 10e-4,2.27244 1.1e-4,4.54485 -0.0156,6.81724 0.0383,1.99107 0.12257,3.9808 0.22174,5.96972 0.12464,2.6627 0.22999,5.32344 0.16252,7.99005 -0.006,2.56997 -10e-4,5.13993 -10e-4,7.70991 0.008,2.94869 0.008,5.89816 0.12661,8.84507 0.19473,4.26188 0.63504,8.50331 1.06093,12.74729 0.37365,4.28173 0.81292,8.56529 0.93759,12.86317 z" /><path
       style="fill:#2f0000;fill-opacity:1;stroke:none;stroke-width:0.413279"
       id="path27"
       d="m 99.081994,111.29043 c 3.590006,-0.65971 7.239746,-0.80372 10.878766,-0.96656 4.0905,-0.13932 8.18786,-0.29478 12.26663,0.11338 0,0 -2.25528,-1.66598 -2.25528,-1.66598 v 0 c -4.01353,-0.23058 -8.02724,5.3e-4 -12.04237,0.0886 -2.0986,0.0638 -4.02496,0.1061 -6.11152,0.22698 -1.53198,0.0888 -3.034512,0.30974 -4.559793,0.44044 -0.191706,0.0164 -0.384606,0.0127 -0.576911,0.0191 z" /><path
       style="fill:#2f0000;fill-opacity:1;stroke:none;stroke-width:0.413279"
       id="path28"
       d="m 101.74726,132.60621 c 2.02843,-1.06831 4.18462,-1.86419 6.29875,-2.74553 1.57941,-0.71158 3.24826,-1.10513 4.93425,-1.44858 0.61541,-0.17098 1.23479,-0.32703 1.85259,-0.48908 0,0 -2.38247,-1.64203 -2.38247,-1.64203 v 0 c -0.61909,0.15214 -1.23692,0.30858 -1.85305,0.47237 -1.68092,0.34677 -3.31311,0.84589 -4.88354,1.55067 -2.13485,0.90377 -4.30082,1.73091 -6.421336,2.66625 z" /><path
       style="fill:#2f0000;fill-opacity:1;stroke:none;stroke-width:0.413279"
       id="path29"
       d="m 102.69113,152.96541 c 1.31361,0.46436 2.66695,0.81244 3.96985,1.30616 0.88856,0.32346 1.78319,0.64575 2.69707,0.89147 0.10557,0.0464 0.21114,0.0929 0.31671,0.13933 0,0 -2.31864,-1.82022 -2.31864,-1.82022 v 0 c -0.1097,-0.0376 -0.21939,-0.0752 -0.32909,-0.11287 -0.89184,-0.26494 -1.77658,-0.55777 -2.64888,-0.8811 -1.33473,-0.46454 -2.70224,-0.83374 -4.01743,-1.35531 z" /><path
       style="fill:#2f0000;fill-opacity:1;stroke:none;stroke-width:0.413279"
       id="path30"
       d="m 97.624325,175.06343 c 0.15318,-0.004 0.307154,0.005 0.459539,-0.0114 1.11435,-0.11737 2.211766,-0.48476 3.293006,-0.75574 1.37523,-0.34466 1.43898,-0.35252 2.78618,-0.66195 1.74582,-0.42164 3.52349,-0.66137 5.3148,-0.7564 0.19442,-0.006 0.38884,-0.0122 0.58326,-0.0182 0,0 -2.36328,-1.7021 -2.36328,-1.7021 v 0 c -0.19263,0.01 -0.38526,0.02 -0.57788,0.0299 -1.77408,0.13124 -3.53108,0.40784 -5.25431,0.85746 -2.180568,0.52598 -4.38559,1.25129 -6.641793,1.27437 z" /><path
       style="fill:#2f0000;fill-opacity:1;stroke:none;stroke-width:0.413279"
       id="path31"
       d="m 97.259909,200.20822 c 2.174457,-0.17665 4.344761,-0.40807 6.524631,-0.54751 1.55875,-0.0961 3.11958,-0.14699 4.68071,-0.18167 0,0 -2.31632,-1.67214 -2.31632,-1.67214 v 0 c -1.54103,0.06 -3.08176,0.12906 -4.62029,0.23759 -2.221216,0.15349 -4.444153,0.38295 -6.669209,0.41968 z" /><path
       style="fill:#2f0000;fill-opacity:1;stroke:none;stroke-width:0.413279"
       id="path32"
       d="m 97.706192,232.63749 c 3.361818,-0.58696 6.758748,-0.90304 10.158478,-1.16666 2.04628,-0.14854 4.09567,-0.24873 6.14669,-0.29661 0,0 -2.34227,-1.68878 -2.34227,-1.68878 v 0 c -2.00072,0.0995 -3.99821,0.25159 -5.99409,0.42169 -3.45648,0.29864 -6.906239,0.66267 -10.358657,0.99403 z" /><path
       style="fill:#2f0000;fill-opacity:1;stroke:none;stroke-width:0.413279"
       id="path33"
       d="m 95.114339,217.33389 c 3.215915,-0.38075 6.453421,-0.51716 9.687351,-0.64025 0.56188,-5.3e-4 1.12377,-10e-4 1.68565,-0.002 0,0 -2.22453,-1.61302 -2.22453,-1.61302 v 0 c -0.55371,0.01 -1.10742,0.02 -1.66112,0.03 -3.294996,0.14614 -6.587715,0.34206 -9.882515,0.48466 z" /></g></svg>
