<!DOCTYPE svg PUBLIC "-//W3C//DTD SVG 1.1//EN" "http://www.w3.org/Graphics/SVG/1.1/DTD/svg11.dtd">
<!-- Uploaded to: SVG Repo, www.svgrepo.com, Transformed by: SVG Repo Mixer Tools -->
<svg version="1.1" id="Layer_1" xmlns="http://www.w3.org/2000/svg" xmlns:xlink="http://www.w3.org/1999/xlink" viewBox="0 0 511.998 511.998" xml:space="preserve" width="800px" height="800px" fill="#000000">
<g id="SVGRepo_bgCarrier" stroke-width="0"/>
<g id="SVGRepo_tracerCarrier" stroke-linecap="round" stroke-linejoin="round"/>
<g id="SVGRepo_iconCarrier"> <rect x="197.771" y="200.092" style="fill:#DFDFE2;" width="118.21" height="60.641"/> <path style="fill:#445f9d;" d="M320.157,200.093H191.841c-8.096,0-14.721-6.624-14.721-14.721l0,0 c0-8.096,6.624-14.721,14.721-14.721h128.315c8.096,0,14.721,6.624,14.721,14.721l0,0 C334.878,193.468,328.253,200.093,320.157,200.093z"/> <path style="fill:#626d9d;" d="M326.455,172.219c0.424,1.369,0.654,2.82,0.654,4.323l0,0c0,8.096-6.624,14.721-14.721,14.721 H184.072c-2.356,0-4.579-0.575-6.559-1.569c1.859,6.003,7.474,10.398,14.067,10.398h128.315c8.097,0,14.721-6.624,14.721-14.721l0,0 C334.617,179.63,331.28,174.643,326.455,172.219z"/> <path style="fill:#445f9d;" d="M320.157,290.177H191.841c-8.096,0-14.721-6.624-14.721-14.721l0,0 c0-8.096,6.624-14.721,14.721-14.721h128.315c8.096,0,14.721,6.624,14.721,14.721l0,0 C334.878,283.552,328.253,290.177,320.157,290.177z"/> <g> <path style="fill:#DFDFE2;" d="M223.758,170.65c0,0-33.027-25.163-20.445-59.763s66.578-67.009,66.578-67.009 s-8.388,29.788-6.291,44.466c0,0,57.142-46.153,60.812-88.344c0,0,35.124,128.187-41.94,170.65H223.758z"/> <polygon style="fill:#DFDFE2;" points="268.851,459.447 243.279,459.447 224.149,290.177 287.981,290.177 "/> <path style="fill:#DFDFE2;" d="M280.542,480.084h-47.514c-5.675,0-10.319-4.643-10.319-10.319l0,0 c0-5.675,4.643-10.319,10.319-10.319h47.514c5.675,0,10.319,4.643,10.319,10.319l0,0 C290.861,475.441,286.217,480.084,280.542,480.084z"/> </g> <g> <path style="opacity:0.13;fill:#445f9d;enable-background:new ;" d="M290.861,469.766L290.861,469.766 c0,5.675-4.643,10.319-10.319,10.319h-47.514c-5.675,0-10.319-4.643-10.319-10.319l0,0H290.861z"/> <circle style="fill:#445f9d;" cx="256.865" cy="496.4" r="15.598"/> </g> <g style="opacity:0.08;"> <path style="fill:#626d9d;" d="M324.425,0.038c-0.136,12.007-2.813,72.421-41.991,112.603 c-35.103,36.003-37.888,52.802-37.63,58.008h37.672C359.047,128.458,324.865,1.657,324.425,0.038z"/> </g> <polygon style="opacity:0.13;fill:#445f9d;enable-background:new ;" points="287.982,290.177 287.971,290.177 274.229,290.177 224.149,290.177 226.575,311.641 271.803,311.641 256.538,446.706 241.829,446.706 243.269,459.447 268.841,459.447 285.545,311.641 285.556,311.641 "/> <g> <rect x="197.771" y="196.738" style="opacity:0.18;fill:#626d9d;enable-background:new ;" width="118.21" height="25.169"/> <rect x="288.596" y="221.907" style="opacity:0.18;fill:#626d9d;enable-background:new ;" width="27.384" height="38.825"/> <path style="fill:#626d9d;" d="M326.455,262.304c0.424,1.369,0.654,2.82,0.654,4.323l0,0c0,8.096-6.624,14.721-14.721,14.721 H184.072c-2.356,0-4.579-0.575-6.559-1.569c1.859,6.004,7.474,10.398,14.067,10.398h128.315c8.097,0,14.721-6.624,14.721-14.721 l0,0C334.617,269.715,331.28,264.728,326.455,262.304z"/> </g> </g>
</svg>