<svg height="200px" width="200px" version="1.1" id="Layer_1" xmlns="http://www.w3.org/2000/svg" xmlns:xlink="http://www.w3.org/1999/xlink" viewBox="0 0 512 512" xml:space="preserve" fill="#000000"><g id="SVGRepo_bgCarrier" stroke-width="0"></g><g id="SVGRepo_tracerCarrier" stroke-linecap="round" stroke-linejoin="round"></g><g id="SVGRepo_iconCarrier"> <circle style="fill:#ffffff;" cx="256" cy="256" r="256"></circle> <path style="fill:#002e42;" d="M509.502,291.759L338.447,120.704L229.885,370.669l-36.807,63.54l77.377,77.378 C393.142,504.756,492.758,411.541,509.502,291.759z"></path> <polygon style="fill:#ffffff;" points="193.077,434.209 256,402.747 318.923,434.209 318.923,276.902 193.077,276.902 "></polygon> <polygon style="fill:#d7dafd;" points="255.426,276.902 255.426,403.035 256,402.747 318.923,434.209 318.923,276.902 "></polygon> <circle style="fill:#324A5E;" cx="256" cy="199.111" r="113.778"></circle> <path style="fill:#2B3B4E;" d="M256,85.333c-0.193,0-0.381,0.014-0.574,0.014v227.526c0.193,0.002,0.381,0.014,0.574,0.014 c62.838,0,113.778-50.94,113.778-113.778S318.838,85.333,256,85.333z"></path> <circle style="fill:#fff8d5;" cx="256" cy="199.111" r="71.111"></circle> <path style="fill:#ffe8b7;" d="M256,128c-0.193,0-0.383,0.014-0.574,0.014v142.193c0.191,0.002,0.381,0.014,0.574,0.014 c39.274,0,71.111-31.837,71.111-71.111S295.274,128,256,128z"></path> </g></svg>