<?xml version="1.0" encoding="UTF-8" standalone="no"?>
<!-- Uploaded to: SVG Repo, www.svgrepo.com, Generator: SVG Repo Mixer Tools -->

<svg
   height="800"
   width="800"
   version="1.1"
   id="Layer_1"
   viewBox="0 0 511.978 511.978"
   xml:space="preserve"
   sodipodi:docname="gamblers_knife.svg"
   xmlns:inkscape="http://www.inkscape.org/namespaces/inkscape"
   xmlns:sodipodi="http://sodipodi.sourceforge.net/DTD/sodipodi-0.dtd"
   xmlns="http://www.w3.org/2000/svg"
   xmlns:svg="http://www.w3.org/2000/svg"><defs
   id="defs7" /><sodipodi:namedview
   id="namedview7"
   pagecolor="#505050"
   bordercolor="#eeeeee"
   borderopacity="1"
   inkscape:showpageshadow="0"
   inkscape:pageopacity="0"
   inkscape:pagecheckerboard="0"
   inkscape:deskcolor="#d1d1d1" />
<path
   style="fill:#ccd1d9"
   d="m 459.67,0.166 c -3.687,-0.656 -7.437,0.656 -9.89,3.469 -0.062,0.047 -4.953,5.625 -14.219,14.891 -15.796,15.797 -49.421,47.39 -97.107,81.514 -0.484,0.344 -0.922,0.719 -1.344,1.141 L 148.145,290.146 c -4.172,4.156 -4.172,10.906 0,15.094 l 75.42,75.404 c 2,2 4.719,3.125 7.531,3.125 2.844,0 5.562,-1.125 7.562,-3.125 l 30.312,-30.312 c -4.172,-4.156 -4.172,-10.906 0,-15.094 4.156,-4.155 10.906,-4.155 15.078,0 l 7.547,-7.53 c -4.172,-4.156 -4.172,-10.938 0,-15.094 4.156,-4.156 10.922,-4.156 15.078,0 l 7.547,-7.531 c -4.172,-4.156 -4.172,-10.938 0,-15.094 4.155,-4.156 10.921,-4.156 15.077,0 v 0 L 442.701,176.6 v 0 C 469.591,149.71 482.403,111.679 479.747,66.602 477.794,33.275 468.153,7.9 467.747,6.837 466.404,3.354 463.342,0.822 459.67,0.166 Z"
   id="path1" />
<path
   style="fill:#e6e9ed"
   d="m 459.67,0.166 c -3.687,-0.656 -7.437,0.656 -9.89,3.469 -0.062,0.047 -4.953,5.625 -14.219,14.891 0,0 16.25,88.639 -23.171,128.045 -39.422,39.421 -173.591,173.607 -173.591,173.607 l 30.171,30.155 v 0 c -4.172,-4.156 -4.172,-10.906 0,-15.094 4.156,-4.155 10.906,-4.155 15.078,0 l 7.547,-7.53 c -4.172,-4.156 -4.172,-10.938 0,-15.094 4.156,-4.156 10.922,-4.156 15.078,0 l 7.547,-7.531 c -4.172,-4.156 -4.172,-10.938 0,-15.094 4.155,-4.156 10.921,-4.156 15.077,0 v 0 L 442.701,176.601 v 0 c 26.89,-26.89 39.702,-64.921 37.046,-109.998 -1.953,-33.327 -11.594,-58.702 -12,-59.765 -1.343,-3.484 -4.405,-6.016 -8.077,-6.672 z"
   id="path2" />
<path
   style="fill:#ed5564"
   d="m 231.112,373.113 -120.67,120.654 c -4.172,4.188 -10.938,4.188 -15.093,0 L 35.006,433.456 c -4.156,-4.188 -4.156,-10.938 0,-15.094 L 155.691,297.676 c 2,-2 4.719,-3.125 7.531,-3.125 2.844,0 5.547,1.125 7.547,3.125 l 60.343,60.343 c 4.171,4.158 4.171,10.907 0,15.094 z"
   id="path3" />
<g
   id="g6">
	<path
   style="fill:#da4453"
   d="m 125.52,508.861 c -4.171,4.156 -10.921,4.156 -15.078,0 L 35.006,433.457 c -4.156,-4.188 -4.156,-10.938 0,-15.094 l 7.546,-7.562 82.967,82.967 c 4.173,4.187 4.173,10.937 10e-4,15.093 z"
   id="path4" />
	<polygon
   style="fill:#da4453"
   points="72.724,380.644 57.631,395.738 133.067,471.143 148.145,456.081 "
   id="polygon4" />
	<polygon
   style="fill:#da4453"
   points="102.88,350.489 87.802,365.551 163.222,440.988 178.316,425.894 "
   id="polygon5" />
	<polygon
   style="fill:#da4453"
   points="133.067,320.302 117.973,335.395 193.394,410.801 208.471,395.738 "
   id="polygon6" />
</g>
<g
   style="opacity:0.1"
   id="g7">
	<path
   style="fill:#080808"
   d="M 329.298,169.32 209.065,289.552 c -4.156,4.156 -10.906,4.156 -15.078,0 -4.172,-4.156 -4.172,-10.906 0,-15.094 L 314.22,154.242 c 4.155,-4.171 10.921,-4.171 15.077,0 4.172,4.156 4.172,10.922 10e-4,15.078 z"
   id="path6" />
</g>
<polygon
   style="fill:#e6e9ed"
   points="231.253,327.709 238.799,320.177 268.97,350.333 261.424,357.864 "
   id="polygon7" />
<path
   style="fill:#434a54"
   d="m 261.283,403.269 c -4.172,4.156 -10.921,4.156 -15.093,0 L 140.598,297.677 c -4.156,-4.156 -4.156,-10.906 0,-15.094 4.172,-4.156 10.922,-4.156 15.093,0 l 105.592,105.592 c 4.156,4.188 4.156,10.938 0,15.094 z"
   id="path7" />
<path
   style="fill:#000000;fill-opacity:0.809129;stroke-width:10.9047"
   d="m 140.92617,387.98175 -37.42936,-37.43312 7.40157,-7.38229 7.40157,-7.38229 37.42161,37.42161 37.4216,37.4216 -7.39382,7.39381 -7.39381,7.39381 z"
   id="path8" /><path
   style="fill:#000000;fill-opacity:0.809129;stroke-width:10.9047"
   d="m 110.73734,418.17059 -37.42936,-37.43313 7.401569,-7.38228 7.40157,-7.38229 37.421601,37.4216 37.4216,37.42161 -7.39381,7.3938 -7.39382,7.39382 z"
   id="path9" /><path
   style="fill:#000000;fill-opacity:0.809129;stroke-width:10.9047"
   d="m 80.5485,448.35943 -37.429354,-37.43313 7.401569,-7.38229 7.401569,-7.38229 37.4216,37.42161 37.421606,37.4216 -7.39381,7.39382 -7.39382,7.3938 z"
   id="path10" /><path
   style="fill:#000000;fill-opacity:0.809129;stroke-width:10.9047"
   d="m 171.11196,357.78987 -37.42631,-37.43008 7.24861,-7.22972 7.24861,-7.22972 37.42631,37.43007 37.4263,37.43008 -7.24861,7.22972 -7.24861,7.22973 z"
   id="path11" /><path
   style="fill:#ababab;fill-opacity:0.809129;stroke-width:10.9047"
   d="m 155.71317,372.57991 -37.42998,-37.43375 7.40093,-7.38165 7.40093,-7.38165 37.2701,37.26629 c 20.49856,20.49646 37.2701,37.54891 37.2701,37.89434 0,0.61115 -13.58283,14.47018 -14.1818,14.47018 -0.16517,0 -17.14379,-16.8452 -37.73028,-37.43376 z"
   id="path12" /><path
   style="fill:#ababab;fill-opacity:0.809129;stroke-width:10.9047"
   d="M 125.52433,402.76875 88.094346,365.335 l 7.400943,-7.38166 7.400931,-7.38166 37.57447,37.57068 37.57448,37.57069 -7.22585,7.24472 c -3.97423,3.98461 -7.36967,7.24474 -7.54543,7.24474 -0.17577,0 -17.16307,-16.84519 -37.74956,-37.43376 z"
   id="path13" /><path
   style="fill:#ababab;fill-opacity:0.809129;stroke-width:10.9047"
   d="m 95.335494,432.95759 -37.42998,-37.43376 7.400941,-7.38165 7.400936,-7.38166 37.574469,37.57068 37.57447,37.57068 -7.22585,7.24473 c -3.97422,3.9846 -7.36966,7.24473 -7.54543,7.24473 -0.17577,0 -17.16306,-16.84519 -37.749556,-37.43375 z"
   id="path14" /><path
   style="fill:#ababab;fill-opacity:0.809129;stroke-width:10.9047"
   d="M 113.36216,510.45247 C 112.17617,509.81281 93.551314,491.59624 71.973592,469.97121 33.305956,431.2188 32.7354,430.61153 32.326226,427.7727 c -0.630581,-4.37493 0.525434,-6.87774 5.614151,-12.15485 l 4.51296,-4.68003 41.346499,41.27861 c 22.740574,22.70323 42.055334,42.46884 42.921684,43.92356 3.01285,5.059 1.10935,11.63103 -4.14523,14.31171 -2.97383,1.51714 -6.40212,1.51743 -9.21413,6.4e-4 z"
   id="path15" /><path
   style="fill:#000000;fill-opacity:0.809129;stroke-width:15.4215"
   d="m 252.24826,333.28758 -13.06109,-13.09176 89.40263,-89.52301 c 49.17144,-49.23764 90.57877,-91.28738 92.01628,-93.44383 13.48277,-20.2259 19.44903,-48.409731 18.16783,-85.822569 -0.3282,-9.584246 -1.07618,-20.758606 -1.66216,-24.83191 l -1.06543,-7.406009 7.42445,-8.115857 c 9.88139,-10.80161177 13.19905,-12.4064973 19.21545,-9.2952965 3.07893,1.5921776 4.28198,3.8042178 7.33689,13.4903255 5.95342,18.876326 9.27972,40.853158 9.29714,61.426302 0.0227,26.736704 -3.56009,44.782684 -12.87425,64.846784 -8.90235,19.17697 -9.70017,20.08523 -76.17581,86.71854 -57.43356,57.56979 -60.91831,60.89548 -62.82394,59.9563 -5.61399,-2.76683 -10.47225,-1.90856 -14.18715,2.50634 -2.56386,3.04698 -3.05446,9.60381 -0.94401,12.61688 1.16635,1.66522 1.01222,2.04742 -2.01953,5.00785 l -3.28227,3.20504 -3.34909,-1.39933 c -4.53539,-1.895 -8.72892,-0.99875 -12.37183,2.64416 -2.48636,2.48636 -2.89369,3.4919 -2.89369,7.14342 0,2.33736 0.56823,5.061 1.26273,6.05254 1.1661,1.66484 1.0132,2.04647 -1.99791,4.98673 l -3.26064,3.18394 -3.67381,-1.44311 c -7.23965,-2.84382 -14.13482,1.46549 -14.96451,9.35245 l -0.45518,4.32684 z"
   id="path16" /><path
   style="fill:#000000;fill-opacity:0.809129;stroke-width:15.4215"
   d="M 457.61712,0.96829471 C 449.90798,2.6665508 445.54621,10.59308 439.96318,15.513138 c -3.20443,2.490162 -3.85949,6.344282 -2.59657,10.05869 2.44726,31.726867 4.08774,65.056911 -7.8964,95.204652 -3.99868,11.59023 -11.88607,21.04911 -20.61936,29.41374 -55.89783,57.04827 -112.63824,113.36234 -168.84138,170.04647 8.17265,8.10543 16.26787,16.49296 24.48986,24.42179 1.11527,-5.69575 3.78377,-12.89359 10.7057,-12.97073 3.98526,-0.90182 8.70615,3.74512 11.66461,-0.73231 2.25573,-1.50924 3.36262,-3.98799 1.95958,-6.42354 -0.79595,-4.67228 -1.03793,-10.42484 3.80171,-13.06602 3.734,-3.81317 9.20205,-2.41773 13.631,-1.04488 3.49849,-1.21785 7.68757,-5.20559 4.99633,-9.13328 -2.42331,-7.16303 3.2762,-16.10593 11.31493,-14.94305 2.83024,0.37711 6.21912,2.75881 8.45428,-0.4884 37.68705,-36.4463 74.92247,-73.3967 111.18419,-111.26428 12.3158,-12.51888 22.57589,-27.17617 28.18155,-43.93424 10.08668,-26.40132 9.33581,-55.473262 6.34298,-83.132313 C 474.44839,32.9275 471.76978,17.916543 465.03675,4.6491762 463.4636,2.1457584 460.50206,0.90265216 457.61712,0.96829471 Z"
   id="path17" /><path
   style="fill:#000000;fill-opacity:0.809129;stroke-width:15.4215"
   d="m 458.13786,1.0499787 c -9.32761,2.1686862 -14.57006,11.6068833 -21.23782,17.6539363 1.17529,24.33364 2.15954,49.016573 -0.0289,73.353857 -2.66165,15.528708 -7.03176,31.435678 -16.11556,44.567088 -22.28378,24.97143 -46.65407,48.00685 -69.99338,72.00077 -36.75719,37.04525 -73.58431,74.02066 -110.23877,111.1669 5.58231,7.38315 13.40818,13.90575 20.08816,20.7518 1.26596,1.49649 4.19414,4.58659 4.8867,1.00505 1.26718,-5.80802 6.49924,-11.23219 12.92988,-9.14349 4.43345,1.29464 10.84508,-0.58127 10.99499,-5.95272 -0.3634,-5.27539 -1.93187,-12.71656 4.22885,-15.40252 5.24546,-4.12293 14.348,2.15511 18.08277,-4.63386 1.12255,-4.61967 -2.44871,-9.59184 0.51393,-14.03431 2.12807,-4.65889 7.36619,-6.67824 12.23761,-5.22287 5.8289,2.45351 8.81488,-3.11725 12.47122,-6.51098 36.71743,-37.28845 74.51176,-73.54516 110.22208,-111.80677 17.63022,-18.39075 27.25358,-43.27636 30.49434,-68.25832 2.57258,-28.833458 0.46776,-58.484919 -8.36239,-86.151013 C 467.05899,9.3156739 465.43031,0.51931827 458.13786,1.0499787 Z"
   id="path18" /><path
   style="fill:#000000;fill-opacity:0.829876;stroke-width:15.4215"
   d="m 435.04003,19.28251 c -28.69304,27.646705 -59.31878,53.17053 -91.18818,77.065369 -27.06192,23.905891 -51.77056,50.335991 -77.55658,75.588861 -36.77587,36.78731 -73.5324,73.59394 -110.29941,110.3901 5.83369,7.72969 14.15401,14.4295 20.94577,21.76238 22.92743,22.93092 45.85487,45.86183 68.78231,68.79275 5.68153,-3.79531 10.33581,-10.07061 15.62545,-14.81202 -5.90439,-7.79486 -14.28237,-14.56513 -21.14828,-21.96171 -2.33012,-3.83511 -12.06471,-7.66442 -5.34563,-11.50661 60.35151,-60.83274 121.37013,-121.02066 180.98647,-182.56996 16.75778,-18.8761 21.95749,-44.98233 21.90446,-69.555149 0.2023,-17.733964 1.21564,-35.837661 -2.0444,-53.282502 l -0.53095,-0.0034 z M 320.9361,151.7449 c 7.42179,-1.06945 14.0628,7.67162 10.07266,14.25724 -35.71842,37.91989 -72.94695,74.41806 -110.01141,111.02189 -5.59691,4.79989 -10.20682,11.13133 -16.54761,14.89897 -8.41237,3.18443 -16.85406,-8.08377 -11.50042,-15.29871 40.63886,-42.29248 82.66307,-83.28148 124.03362,-124.87939 1.31772,0 2.63545,0 3.95316,0 z"
   id="path19" /><path
   style="fill:#ffffff;fill-opacity:0.829876;stroke-width:10.9047"
   d="m 125.58546,327.66462 c -2.14939,2.71855 -5.91634,4.7657 -7.09356,7.88775 24.877,24.76813 49.51298,49.7844 74.62856,74.30848 2.77702,-0.75985 4.52136,-4.10972 6.85093,-5.85861 2.42583,-2.85091 6.05278,-5.15557 7.67192,-8.37905 -7.60023,-9.16324 -16.62841,-17.09387 -24.82629,-25.7288 -16.41426,-16.46066 -32.88325,-32.86797 -49.32456,-49.30287 -3.0263,1.10235 -5.25665,4.98806 -7.907,7.0731 z"
   id="path20" /><path
   style="fill:#ffffff;fill-opacity:0.829876;stroke-width:10.9047"
   d="m 95.058488,357.58271 c -2.247571,2.83993 -6.150724,4.99411 -7.423265,8.23791 25.123697,24.75 49.746097,50.0414 75.371007,74.26396 2.93223,-0.72379 4.83875,-4.06805 7.25363,-5.84807 2.58709,-2.74452 5.71551,-5.15733 7.74212,-8.34747 -4.3119,-5.72704 -10.09311,-10.55276 -14.9961,-15.88888 -19.8044,-20.04581 -39.80283,-39.8976 -59.70947,-59.84192 -3.09751,1.17997 -5.507793,5.252 -8.237922,7.42447 z"
   id="path21" /><path
   style="fill:#ffffff;fill-opacity:0.829876;stroke-width:10.9047"
   d="m 64.869654,387.77154 c -2.247575,2.83994 -6.150725,4.99411 -7.423266,8.23792 25.123696,24.75 49.746102,50.0414 75.371012,74.26395 2.93223,-0.72378 4.83875,-4.06805 7.25362,-5.84806 2.5871,-2.74453 5.71552,-5.15734 7.74212,-8.34748 -4.3119,-5.72703 -10.09311,-10.55276 -14.9961,-15.88887 -19.8044,-20.04582 -39.802822,-39.89761 -59.709474,-59.84193 -3.097499,1.17998 -5.507789,5.25201 -8.237912,7.42447 z"
   id="path22" /><path
   style="fill:#ffffff;fill-opacity:0.829876;stroke-width:10.9047"
   d="m 42.016245,410.54553 c -4.118774,4.97446 -11.272719,9.80152 -9.810649,17.21707 1.313202,5.46696 6.84988,8.5732 10.116425,12.82211 22.78864,23.28859 45.563387,46.64212 69.579309,68.67259 5.0258,5.69539 14.81127,1.49223 16.23275,-5.33792 1.82109,-5.57 -2.90985,-9.96294 -6.35949,-13.57969 C 95.935334,463.2773 69.339785,436.9481 42.845331,410.52989 l -0.615989,0.0116 z"
   id="path23" /><path
   style="fill:#000000;fill-opacity:0.829876;stroke-width:7.71077"
   d="m 147.88022,305.67568 c -4.76069,4.98065 -10.04106,9.63633 -14.48443,14.81542 18.73073,19.14053 37.90535,37.96554 56.80684,56.98471 6.14158,5.93425 11.96361,12.37941 18.30492,17.99432 4.91893,-4.55809 9.78191,-9.31798 14.37297,-14.24194 -0.54986,-2.20224 -3.19567,-3.46168 -4.52709,-5.29898 -23.12239,-23.51219 -46.4303,-46.84229 -69.65722,-70.25268 -0.27041,0.0278 -0.56751,-0.41688 -0.81599,-6.4e-4 z"
   id="path24" /><path
   style="fill:#000000;fill-opacity:0.829876;stroke-width:7.71077"
   d="m 117.8733,335.69537 c -4.77954,4.99278 -10.07982,9.65986 -14.54059,14.85201 19.11943,19.54131 38.71052,38.73883 57.94375,58.21487 5.60338,5.50377 10.91599,11.29615 16.60644,16.70204 2.08471,-0.43088 3.28151,-2.93997 4.99492,-4.17423 3.45061,-3.60379 7.35328,-6.94002 10.46205,-10.76457 -18.73328,-19.14309 -37.91046,-37.97064 -56.81449,-56.99236 -6.14408,-5.9369 -11.9688,-12.38438 -18.31258,-18.00198 z"
   id="path25" /><path
   style="fill:#000000;fill-opacity:0.829876;stroke-width:7.71077"
   d="m 87.566861,366.00861 c -4.771968,4.97866 -10.063139,9.63145 -14.518467,14.80861 17.968405,18.36968 36.359796,36.44513 54.520286,54.67214 6.72545,6.67041 13.38933,13.406 20.19497,19.99377 2.01548,-0.17745 3.11785,-2.72038 4.7441,-3.8277 3.55758,-3.70194 7.56014,-7.14322 10.77244,-11.0694 -18.9474,-19.21628 -38.32928,-38.12492 -57.43916,-57.2275 -6.019547,-5.77299 -11.719212,-12.06016 -17.937223,-17.51414 z"
   id="path26" /><path
   style="fill:#000000;fill-opacity:0.829876;stroke-width:7.71077"
   d="m 57.399118,396.17635 c -4.716543,4.91604 -9.939388,9.51431 -14.338931,14.62908 18.9659,19.52732 38.373741,38.74289 57.509983,58.14995 5.81453,5.65386 11.3084,11.81513 17.32355,17.15156 5.14849,-4.71675 9.98319,-9.87654 15.01112,-14.76351 -0.38092,-2.2866 -3.51016,-3.76772 -4.93924,-5.73431 -23.25101,-23.14454 -46.502029,-46.28908 -69.753047,-69.43362 -0.269302,0.0305 -0.567408,-0.41185 -0.813435,6.4e-4 z"
   id="path27" /></svg>
