<?xml version="1.0" encoding="iso-8859-1"?>
<!-- Uploaded to: SVG Repo, www.svgrepo.com, Generator: SVG Repo Mixer Tools -->
<svg height="800px" width="800px" version="1.1" id="Layer_1" xmlns="http://www.w3.org/2000/svg" xmlns:xlink="http://www.w3.org/1999/xlink" 
	 viewBox="0 0 511.978 511.978" xml:space="preserve">
<path style="fill:#CCD1D9;" d="M459.67,0.166c-3.687-0.656-7.437,0.656-9.89,3.469c-0.062,0.047-4.953,5.625-14.219,14.891
	c-15.796,15.797-49.421,47.39-97.107,81.514c-0.484,0.344-0.922,0.719-1.344,1.141L148.145,290.146
	c-4.172,4.156-4.172,10.906,0,15.094l75.42,75.404c2,2,4.719,3.125,7.531,3.125c2.844,0,5.562-1.125,7.562-3.125l30.312-30.312
	c-4.172-4.156-4.172-10.906,0-15.094c4.156-4.155,10.906-4.155,15.078,0l7.547-7.53c-4.172-4.156-4.172-10.938,0-15.094
	c4.156-4.156,10.922-4.156,15.078,0l7.547-7.531c-4.172-4.156-4.172-10.938,0-15.094c4.155-4.156,10.921-4.156,15.077,0l0,0
	L442.701,176.6l0,0c26.89-26.89,39.702-64.921,37.046-109.998c-1.953-33.327-11.594-58.702-12-59.765
	C466.404,3.354,463.342,0.822,459.67,0.166z"/>
<path style="fill:#E6E9ED;" d="M459.67,0.166c-3.687-0.656-7.437,0.656-9.89,3.469c-0.062,0.047-4.953,5.625-14.219,14.891
	c0,0,16.25,88.639-23.171,128.045c-39.422,39.421-173.591,173.607-173.591,173.607l30.171,30.155l0,0
	c-4.172-4.156-4.172-10.906,0-15.094c4.156-4.155,10.906-4.155,15.078,0l7.547-7.53c-4.172-4.156-4.172-10.938,0-15.094
	c4.156-4.156,10.922-4.156,15.078,0l7.547-7.531c-4.172-4.156-4.172-10.938,0-15.094c4.155-4.156,10.921-4.156,15.077,0l0,0
	l113.404-113.389l0,0c26.89-26.89,39.702-64.921,37.046-109.998c-1.953-33.327-11.594-58.702-12-59.765
	C466.404,3.354,463.342,0.822,459.67,0.166z"/>
<path style="fill:#ED5564;" d="M231.112,373.113l-120.67,120.654c-4.172,4.188-10.938,4.188-15.093,0l-60.343-60.311
	c-4.156-4.188-4.156-10.938,0-15.094l120.685-120.686c2-2,4.719-3.125,7.531-3.125c2.844,0,5.547,1.125,7.547,3.125l60.343,60.343
	C235.283,362.177,235.283,368.926,231.112,373.113z"/>
<g>
	<path style="fill:#DA4453;" d="M125.52,508.861c-4.171,4.156-10.921,4.156-15.078,0l-75.436-75.404
		c-4.156-4.188-4.156-10.938,0-15.094l7.546-7.562l82.967,82.967C129.692,497.955,129.692,504.705,125.52,508.861z"/>
	<polygon style="fill:#DA4453;" points="133.067,471.143 148.145,456.081 72.724,380.644 57.631,395.738 	"/>
	<polygon style="fill:#DA4453;" points="163.222,440.988 178.316,425.894 102.88,350.489 87.802,365.551 	"/>
	<polygon style="fill:#DA4453;" points="193.394,410.801 208.471,395.738 133.067,320.302 117.973,335.395 	"/>
</g>
<g style="opacity:0.1;">
	<path style="fill:#080808;" d="M329.298,169.32L209.065,289.552c-4.156,4.156-10.906,4.156-15.078,0s-4.172-10.906,0-15.094
		L314.22,154.242c4.155-4.171,10.921-4.171,15.077,0C333.469,158.398,333.469,165.164,329.298,169.32z"/>
</g>
<polygon style="fill:#E6E9ED;" points="268.97,350.333 261.424,357.864 231.253,327.709 238.799,320.177 "/>
<path style="fill:#434A54;" d="M261.283,403.269c-4.172,4.156-10.921,4.156-15.093,0L140.598,297.677
	c-4.156-4.156-4.156-10.906,0-15.094c4.172-4.156,10.922-4.156,15.093,0l105.592,105.592
	C265.439,392.363,265.439,399.113,261.283,403.269z"/>
</svg>