<?xml version="1.0" encoding="UTF-8" standalone="no"?>
<!-- Uploaded to: SVG Repo, www.svgrepo.com, Generator: SVG Repo Mixer Tools -->

<svg
   height="800px"
   width="800px"
   version="1.1"
   id="Layer_1"
   viewBox="0 0 512 512"
   xml:space="preserve"
   sodipodi:docname="shiny_dice.svg"
   inkscape:version="1.3.2 (091e20e, 2023-11-25, custom)"
   xmlns:inkscape="http://www.inkscape.org/namespaces/inkscape"
   xmlns:sodipodi="http://sodipodi.sourceforge.net/DTD/sodipodi-0.dtd"
   xmlns="http://www.w3.org/2000/svg"
   xmlns:svg="http://www.w3.org/2000/svg"><defs
   id="defs11" /><sodipodi:namedview
   id="namedview11"
   pagecolor="#505050"
   bordercolor="#eeeeee"
   borderopacity="1"
   inkscape:showpageshadow="0"
   inkscape:pageopacity="0"
   inkscape:pagecheckerboard="0"
   inkscape:deskcolor="#d1d1d1"
   inkscape:zoom="0.2596875"
   inkscape:cx="109.74729"
   inkscape:cy="109.74729"
   inkscape:window-width="2560"
   inkscape:window-height="1027"
   inkscape:window-x="-8"
   inkscape:window-y="211"
   inkscape:window-maximized="1"
   inkscape:current-layer="Layer_1" />
<g
   id="g11">
	<polygon
   style="fill:#E6EEF4;"
   points="251.259,180.148 4.741,85.333 4.741,407.704 251.259,512  "
   id="polygon1" />
	<polygon
   style="fill:#DAE1E5;"
   points="507.259,94.815 250.785,180.148 251.259,512 507.259,417.185  "
   id="polygon2" />
	<polygon
   style="fill:#ECFAFF;"
   points="507.259,94.815 251.259,180.148 4.741,85.333 251.259,0  "
   id="polygon3" />
	<g
   id="g10">
		<path
   d="M476.787,174.394c0,12.535-8.04,22.689-17.948,22.689c-9.918,0-17.948-10.155-17.948-22.689    c0-12.535,8.031-22.689,17.948-22.689C468.746,151.705,476.787,161.859,476.787,174.394"
   id="path3" />
		<path
   d="M402.963,288.172c0,12.534-8.04,22.689-17.948,22.689c-9.918,0-17.948-10.155-17.948-22.689    c0-12.535,8.031-22.689,17.948-22.689C394.923,265.482,402.963,275.637,402.963,288.172"
   id="path4" />
		<path
   d="M334.564,413.458c0,12.535-8.04,22.689-17.948,22.689c-9.918,0-17.948-10.155-17.948-22.689    c0-12.535,8.031-22.689,17.948-22.689C326.524,390.769,334.564,400.923,334.564,413.458"
   id="path5" />
		<path
   d="M206.747,222.296c0,12.535-8.04,22.689-17.948,22.689c-9.918,0-17.948-10.155-17.948-22.689    c0-12.535,8.031-22.689,17.948-22.689C198.706,199.607,206.747,209.762,206.747,222.296"
   id="path6" />
		<path
   d="M70.293,165.468c0,12.535-8.04,22.689-17.948,22.689c-9.918,0-17.948-10.155-17.948-22.689    c0-12.535,8.031-22.689,17.948-22.689C62.253,142.779,70.293,152.933,70.293,165.468"
   id="path7" />
		<path
   d="M203.852,420.912c0,12.535-8.04,22.689-17.948,22.689c-9.918,0-17.948-10.155-17.948-22.689s8.031-22.689,17.948-22.689    C195.812,398.223,203.852,408.378,203.852,420.912"
   id="path8" />
		<path
   d="M69.656,366.051c0,12.535-8.04,22.689-17.948,22.689c-9.918,0-17.948-10.155-17.948-22.689    c0-12.535,8.031-22.689,17.948-22.689C61.615,343.361,69.656,353.516,69.656,366.051"
   id="path9" />
		<path
   d="M251.328,70.738c12.535,0,22.689,8.04,22.689,17.948c0,9.918-10.155,17.948-22.689,17.948    c-12.535,0-22.689-8.031-22.689-17.948C228.639,78.778,238.794,70.738,251.328,70.738"
   id="path10" />
	</g>
</g>
<path
   fill="#000000"
   d="m 239.52501,8.9311847 c -6.81709,44.7142003 -29.95049,68.1865013 -71.4118,67.9740823 35.31475,4.779428 71.30005,8.49676 71.4118,68.048433 C 238.85448,95.991115 266.90513,77.967362 311.16033,76.905267 268.69322,75.312124 238.63096,59.593118 239.52501,8.9311847 Z M 382.34862,21.230246 c -10.16975,15.134853 -23.24516,22.612002 -43.47291,10.918337 16.65158,12.522099 20.78653,26.297472 11.39906,41.389843 C 360.22102,61.664203 369.832,49.397005 393.85945,62.630709 373.96696,51.946033 372.8494,37.597129 382.34862,21.230246 Z M 40.913022,31.192697 C 37.895621,51.160083 27.502354,61.568614 9.0626856,61.462405 24.820221,63.586595 40.801266,65.285947 40.913022,91.753356 40.577754,69.980407 53.094377,61.887243 72.763358,61.462405 53.876667,60.718938 40.465999,53.709111 40.913022,31.192697 Z M 455.88378,57.309613 c -3.0174,19.967387 -13.41066,30.375919 -31.85033,30.269709 15.75753,2.12419 31.73857,3.823542 31.85033,30.290948 -0.33526,-21.772946 12.18137,-29.86611 31.85034,-30.290948 -18.88669,-0.743467 -32.29736,-7.753294 -31.85034,-30.269709 z M 108.65925,110.54181 c -17.657385,57.03452 -53.374463,50.98058 -88.678046,46.09494 39.840858,10.83337 55.151371,39.61614 48.423686,84.33034 14.148255,-48.85637 47.63022,-55.86619 88.75627,-46.09492 -42.02009,-12.85135 -63.588919,-37.59816 -48.50191,-84.33036 z m 208.9829,5.31048 c -9.83449,65.42506 -43.91993,99.83694 -104.6032,99.51831 51.63106,6.90362 104.6032,12.42652 104.6032,99.51831 -0.89404,-71.479 40.12025,-97.92516 104.82672,-99.51831 -62.02434,-2.3366 -106.05603,-25.38407 -104.82672,-99.51831 z m 152.88162,40.67825 c -14.63999,22.94125 -32.9679,30.58834 -55.54252,21.34811 18.21615,10.30232 36.87934,20.28601 22.46286,52.67991 11.51083,-26.76479 31.17981,-30.48212 55.54252,-21.2419 -22.68638,-10.30232 -35.31476,-25.38407 -22.46286,-52.78612 z M 30.877371,245.21547 c 10.236811,17.73699 8.52695,31.96907 -6.269486,42.48381 13.924742,-7.32846 27.771257,-15.18796 44.601645,5.94773 -14.047674,-17.20594 -9.163956,-30.80076 6.269488,-42.4838 -15.556375,10.30232 -30.699254,12.3203 -44.601647,-5.94774 z m 153.328639,0.31863 c 12.74013,28.46415 -0.55878,43.86453 -24.25096,54.06064 25.36852,-9.02781 45.59627,-4.77943 56.88359,23.04746 -14.19296,-33.77462 5.36426,-43.75831 24.25095,-54.06063 -23.46867,9.0278 -42.2436,0.95588 -56.88358,-23.04747 z m 254.80269,13.3824 c -29.72698,68.71755 -76.77608,97.39412 -142.82362,81.14406 54.31321,21.02948 110.4145,40.89066 85.38126,135.84196 C 401.12356,397.62611 453.53692,379.5705 524.5017,394.65225 457.56012,376.06558 416.21056,339.42331 439.0087,258.9165 Z M 85.905812,300.76305 c 17.500928,61.38909 0.961097,104.19152 -52.882733,125.85826 48.568968,-12.53272 97.652011,-26.7648 132.631511,50.3433 -29.50348,-62.98223 -3.79969,-101.32386 52.86038,-126.17689 -55.87778,20.39223 -104.04443,15.93143 -132.609158,-50.02467 z m 189.269228,64.78779 c -24.36271,21.87916 -48.0549,25.06545 -70.62952,7.7533 17.32212,17.31215 35.31476,34.41188 8.04641,67.23061 22.1276,-27.18963 46.04328,-25.59649 70.74126,-7.75329 -22.57462,-18.48045 -31.96209,-39.82856 -8.15815,-67.23062 z m 194.34292,50.44952 c -3.0174,19.96738 -13.41066,30.37592 -31.85033,30.26971 15.75753,2.12419 31.73857,3.82354 31.85033,30.26971 -0.33526,-21.77295 12.18136,-29.84488 31.85034,-30.26971 -18.88669,-0.74347 -32.29736,-7.7533 -31.85034,-30.26971 z m -189.64918,38.23542 c -3.01741,19.96739 -13.41068,30.37592 -31.85035,30.26971 15.75754,2.12419 31.73859,3.82354 31.85035,30.26971 -0.33528,-21.77295 12.18135,-29.84487 31.85033,-30.26971 -18.88669,-0.74347 -32.29736,-7.7533 -31.85033,-30.26971 z"
   id="path1"
   style="fill:#e2e487;fill-opacity:0.917012;stroke-width:1.08948" /></svg>
