<?xml version="1.0" encoding="UTF-8" standalone="no"?>
<!-- Uploaded to: SVG Repo, www.svgrepo.com, Generator: SVG Repo Mixer Tools -->

<svg
   height="800px"
   width="800px"
   version="1.1"
   id="Layer_1"
   viewBox="0 0 512 512"
   xml:space="preserve"
   sodipodi:docname="shoddy_dice.svg"
   inkscape:version="1.3.2 (091e20e, 2023-11-25, custom)"
   xmlns:inkscape="http://www.inkscape.org/namespaces/inkscape"
   xmlns:sodipodi="http://sodipodi.sourceforge.net/DTD/sodipodi-0.dtd"
   xmlns="http://www.w3.org/2000/svg"
   xmlns:svg="http://www.w3.org/2000/svg"><defs
   id="defs11" /><sodipodi:namedview
   id="namedview11"
   pagecolor="#505050"
   bordercolor="#eeeeee"
   borderopacity="1"
   inkscape:showpageshadow="0"
   inkscape:pageopacity="0"
   inkscape:pagecheckerboard="0"
   inkscape:deskcolor="#d1d1d1"
   inkscape:zoom="0.18362679"
   inkscape:cx="454.72667"
   inkscape:cy="590.87238"
   inkscape:window-width="2560"
   inkscape:window-height="1027"
   inkscape:window-x="-8"
   inkscape:window-y="211"
   inkscape:window-maximized="1"
   inkscape:current-layer="Layer_1" />
<g
   id="g11">
	<polygon
   style="fill:#E6EEF4;"
   points="251.259,180.148 4.741,85.333 4.741,407.704 251.259,512  "
   id="polygon1" />
	<polygon
   style="fill:#DAE1E5;"
   points="507.259,94.815 250.785,180.148 251.259,512 507.259,417.185  "
   id="polygon2" />
	<polygon
   style="fill:#ECFAFF;"
   points="507.259,94.815 251.259,180.148 4.741,85.333 251.259,0  "
   id="polygon3" />
	<g
   id="g10">
		<path
   d="M476.787,174.394c0,12.535-8.04,22.689-17.948,22.689c-9.918,0-17.948-10.155-17.948-22.689    c0-12.535,8.031-22.689,17.948-22.689C468.746,151.705,476.787,161.859,476.787,174.394"
   id="path3" />
		<path
   d="M402.963,288.172c0,12.534-8.04,22.689-17.948,22.689c-9.918,0-17.948-10.155-17.948-22.689    c0-12.535,8.031-22.689,17.948-22.689C394.923,265.482,402.963,275.637,402.963,288.172"
   id="path4" />
		<path
   d="M334.564,413.458c0,12.535-8.04,22.689-17.948,22.689c-9.918,0-17.948-10.155-17.948-22.689    c0-12.535,8.031-22.689,17.948-22.689C326.524,390.769,334.564,400.923,334.564,413.458"
   id="path5" />
		<path
   d="M206.747,222.296c0,12.535-8.04,22.689-17.948,22.689c-9.918,0-17.948-10.155-17.948-22.689    c0-12.535,8.031-22.689,17.948-22.689C198.706,199.607,206.747,209.762,206.747,222.296"
   id="path6" />
		<path
   d="M70.293,165.468c0,12.535-8.04,22.689-17.948,22.689c-9.918,0-17.948-10.155-17.948-22.689    c0-12.535,8.031-22.689,17.948-22.689C62.253,142.779,70.293,152.933,70.293,165.468"
   id="path7" />
		<path
   d="M203.852,420.912c0,12.535-8.04,22.689-17.948,22.689c-9.918,0-17.948-10.155-17.948-22.689s8.031-22.689,17.948-22.689    C195.812,398.223,203.852,408.378,203.852,420.912"
   id="path8" />
		<path
   d="M69.656,366.051c0,12.535-8.04,22.689-17.948,22.689c-9.918,0-17.948-10.155-17.948-22.689    c0-12.535,8.031-22.689,17.948-22.689C61.615,343.361,69.656,353.516,69.656,366.051"
   id="path9" />
		<path
   d="M251.328,70.738c12.535,0,22.689,8.04,22.689,17.948c0,9.918-10.155,17.948-22.689,17.948    c-12.535,0-22.689-8.031-22.689-17.948C228.639,78.778,238.794,70.738,251.328,70.738"
   id="path10" />
	</g>
</g>
<path
   style="fill:#8f5a0e;fill-opacity:1;stroke-width:0.64"
   d="M 41.823962,222.1898 C 43.566627,315.42238 112.4019,336.33436 112.4019,336.33436 Z"
   id="path33" /><path
   style="fill:#8f5a0e;fill-opacity:1;stroke-width:0.64"
   d="M 194.30716,324.13571 69.706605,307.58039 92.361248,184.7225 Z"
   id="path34" /><path
   style="fill:#8f5a0e;fill-opacity:1;stroke-width:0.64"
   d="m 104.5599,291.8964 c 202.14916,26.13998 194.30717,78.41993 194.30717,78.41993 l 28.75397,-173.39518 -22.65465,122.8579 z"
   id="path35" /><path
   style="fill:#8f5a0e;fill-opacity:1;stroke-width:0.64"
   d="m 327.62104,138.54188 -1.74267,-72.320606 67.96394,22.654643 c 0,0 -118.09459,6.011629 -44.54632,25.718833 73.54829,19.7072 -21.67495,23.94713 -21.67495,23.94713 z"
   id="path36" /><path
   style="fill:#8f5a0e;fill-opacity:1;stroke-width:0.64"
   d="m 174.26651,144.6412 c 0,0 -151.611864,-52.279952 -52.27996,-52.279952 99.33191,0 148.99787,-51.408618 97.58925,0 -51.40862,51.408622 -45.30929,52.279952 -45.30929,52.279952 z"
   id="path37" /><path
   style="fill:#8f5a0e;fill-opacity:1;stroke-width:0.64"
   d="m 224.8038,193.43583 193.43582,57.50794 z"
   id="path38" /><path
   style="fill:#8f5a0e;fill-opacity:1;stroke-width:0.64"
   d="m 383.38632,379.90099 90.61858,-80.1626 27.88265,90.61859 c 0,0 -278.82642,45.30929 -142.89855,66.22127 135.92788,20.91198 24.39732,-76.67726 24.39732,-76.67726 z"
   id="path39" /><path
   style="fill:#8f5a0e;fill-opacity:1;stroke-width:0.64"
   d="m 355.50368,209.11981 101.07457,13.94132 -41.82396,-59.25061 -73.19193,41.82396 z"
   id="path40" /><ellipse
   style="fill:#503714;fill-opacity:1;stroke-width:0.64"
   id="path41"
   cx="186.68591"
   cy="67.773766"
   rx="48.673885"
   ry="35.73526" /><ellipse
   style="fill:#503714;fill-opacity:1;stroke-width:0.64"
   id="path42"
   cx="81.944649"
   cy="252.61131"
   rx="57.299637"
   ry="46.825512" /><ellipse
   style="fill:#503714;fill-opacity:1;stroke-width:0.64"
   id="path43"
   cx="427.59085"
   cy="237.20819"
   rx="30.806257"
   ry="30.190132" /><ellipse
   style="fill:#503714;fill-opacity:1;stroke-width:0.64"
   id="path44"
   cx="398.01685"
   cy="407.87485"
   rx="49.290009"
   ry="27.109507" /><ellipse
   style="fill:#503714;fill-opacity:1;stroke-width:0.64"
   id="path45"
   cx="327.77859"
   cy="276.02405"
   rx="16.019255"
   ry="71.47052" /><ellipse
   style="fill:#503714;fill-opacity:1;stroke-width:0.64"
   id="path46"
   cx="309.91095"
   cy="328.39468"
   rx="22.796631"
   ry="49.906139" /><ellipse
   style="fill:#503714;fill-opacity:1;stroke-width:0.64"
   id="path47"
   cx="179.49451"
   cy="121.11523"
   rx="13.94132"
   ry="25.268642" /><ellipse
   style="fill:#503714;fill-opacity:1;stroke-width:0.64"
   id="path48"
   cx="326.74969"
   cy="103.68858"
   rx="25.268642"
   ry="40.952629" /></svg>
