<?xml version="1.0" encoding="UTF-8" standalone="no"?>
<!-- Generator: Adobe Illustrator 18.0.0, SVG Export Plug-In . SVG Version: 6.00 Build 0)  -->

<svg
   version="1.1"
   id="Capa_1"
   x="0px"
   y="0px"
   viewBox="0 0 196.651 196.651"
   style="enable-background:new 0 0 196.651 196.651;"
   xml:space="preserve"
   xmlns="http://www.w3.org/2000/svg"
   xmlns:svg="http://www.w3.org/2000/svg"><defs
   id="defs34" />
<g
   id="g19">
	<g
   id="g7">
		<rect
   x="83.628"
   y="146.386"
   style="fill:#FDCC9B;"
   width="29.395"
   height="32.923"
   id="rect1" />
		<path
   style="fill:#FCBC85;"
   d="M83.628,150.264c0,0,12.365,7.874,29.395,6.051v-9.929H83.628V150.264z"
   id="path1" />
		<ellipse
   style="fill:#FCBC85;"
   cx="41.242"
   cy="95.336"
   rx="14.343"
   ry="16.364"
   id="ellipse1" />
		<ellipse
   style="fill:#FCBC85;"
   cx="155.409"
   cy="95.336"
   rx="14.343"
   ry="16.364"
   id="ellipse2" />
		<path
   style="fill:#FDCC9B;"
   d="M155.352,64.08c0-24.104-17.637-41.74-57.026-41.74c-39.389,0-57.026,17.637-57.026,41.74    c0,24.104-4.115,87.597,57.026,87.597C159.467,151.677,155.352,88.185,155.352,64.08z"
   id="path2" />
		<g
   id="g5">
			<g
   id="g3">
				<ellipse
   style="fill:#3B2519;"
   cx="70.55"
   cy="91.418"
   rx="6.173"
   ry="6.761"
   id="ellipse3" />
				<circle
   style="fill:#FFFFFF;"
   cx="67.859"
   cy="88.433"
   r="1.846"
   id="circle3" />
			</g>
			<path
   style="fill:#86461B;"
   d="M60.675,74.662c2.919,1.46,7.606-4.96,18.335,0.625c1.956,1.018,3.123-8.708-8.377-8.708     C60.675,66.579,58.911,73.781,60.675,74.662z"
   id="path3" />
			<g
   id="g4">
				<ellipse
   style="fill:#3B2519;"
   cx="126.864"
   cy="91.418"
   rx="6.173"
   ry="6.761"
   id="ellipse4" />
				<circle
   style="fill:#FFFFFF;"
   cx="124.173"
   cy="88.433"
   r="1.846"
   id="circle4" />
			</g>
			<path
   style="fill:#86461B;"
   d="M135.977,74.662c-2.919,1.46-7.606-4.96-18.335,0.625c-1.956,1.018-3.123-8.708,8.378-8.708     C135.977,66.579,137.74,73.781,135.977,74.662z"
   id="path4" />
		</g>
		<path
   style="fill:#FCBC85;"
   d="M98.326,115.198c-6.1,0-9.774-4.557-9.774-2.352c0,2.204,1.764,6.393,9.774,6.393    c8.01,0,9.774-4.189,9.774-6.393C108.1,110.642,104.425,115.198,98.326,115.198z"
   id="path5" />
		<path
   style="fill:#FCBC85;"
   d="M98.326,135.469c-2.11,0-3.381-1.576-3.381-0.813c0,0.763,0.61,2.212,3.381,2.212    c2.771,0,3.38-1.449,3.38-2.212C101.706,133.893,100.435,135.469,98.326,135.469z"
   id="path6" />
		<path
   style="fill:#F7945E;"
   d="M98.326,129.852c-9.668,0-15.493-3.937-15.493-2.939c0,0.997,2.796,4.924,15.493,4.924    c12.697,0,15.493-3.927,15.493-4.924C113.818,125.914,107.994,129.852,98.326,129.852z"
   id="path7" />
	</g>
	<path
   style="fill:#D58E64;"
   d="M98.326,159.613v37.038H26.898C26.898,181.66,64.521,159.613,98.326,159.613z"
   id="path8" />
	<path
   style="fill:#D58E64;"
   d="M98.326,159.613v37.038h71.427C169.753,181.66,132.129,159.613,98.326,159.613z"
   id="path9" />
	<path
   style="fill:#BF805A;"
   d="M98.326,159.613c-7.19,0-14.552,1.005-21.689,2.721c0.048,0.063,7.917,10.213,21.689,10.213   c12.754,0,21.233-8.692,22.462-10.03C113.41,160.686,105.775,159.613,98.326,159.613z"
   id="path10" />
	<path
   style="fill:#FDCC9B;"
   d="M83.628,160.895c0,0,4.299,5.332,14.697,5.332c10.398,0,14.698-5.332,14.698-5.332   S97.774,155.344,83.628,160.895z"
   id="path11" />
	<path
   style="fill:#86461B;"
   d="M98.325,139.11v13.669c-30.717,0-40.857-16.378-43.861-20.943   c-2.227-3.387,14.452,11.904,29.164,11.904C90.095,143.74,89.801,139.11,98.325,139.11z"
   id="path12" />
	<path
   style="fill:#86461B;"
   d="M98.325,139.11v13.669c30.718,0,40.858-16.378,43.861-20.943   c2.227-3.387-14.452,11.904-29.164,11.904C106.556,143.74,106.85,139.11,98.325,139.11z"
   id="path13" />
	<path
   style="fill:#86461B;"
   d="M98.712,48.207V0C48.354,0,38.948,18.813,36.596,54.086c-2.352,35.274,2.958,47.417,6.476,47.372   c3.518-0.046,1.627-40.44,6.458-49.136C58.349,36.449,74.113,48.207,98.712,48.207z"
   id="path14" />
	<path
   style="fill:#86461B;"
   d="M98.712,48.207V0c50.358,0,59.764,18.813,62.116,54.086c2.352,35.274-2.958,47.417-6.476,47.372   c-3.518-0.046-1.627-40.44-6.458-49.136C139.076,36.449,123.311,48.207,98.712,48.207z"
   id="path15" />
	<path
   style="fill:#744A25;"
   d="M67.014,165.109c-22.206,7.502-40.115,21.199-40.115,31.542h40.117v-31.542H67.014z"
   id="path16" />
	<path
   style="fill:#573514;"
   d="M69.151,196.651v-33.805c0,0-5.732,2.205-7.716,3.233l-5.85,30.571H69.151z"
   id="path17" />
	<path
   style="fill:#744A25;"
   d="M129.638,165.109c22.206,7.502,40.115,21.199,40.115,31.542h-40.117v-31.542H129.638z"
   id="path18" />
	<path
   style="fill:#573514;"
   d="M127.5,196.651v-33.805c0,0,5.732,2.205,7.716,3.233l5.85,30.571H127.5z"
   id="path19" />
</g>
<g
   id="g20">
</g>
<g
   id="g21">
</g>
<g
   id="g22">
</g>
<g
   id="g23">
</g>
<g
   id="g24">
</g>
<g
   id="g25">
</g>
<g
   id="g26">
</g>
<g
   id="g27">
</g>
<g
   id="g28">
</g>
<g
   id="g29">
</g>
<g
   id="g30">
</g>
<g
   id="g31">
</g>
<g
   id="g32">
</g>
<g
   id="g33">
</g>
<g
   id="g34">
</g>
<path
   style="fill:#342612;fill-opacity:1"
   d="M 98.366698,0.32679966 72.222725,1.3071986 51.634347,10.13079 38.88916,27.777971 27.777971,50.000348 7.8431919,59.804338 35.947963,71.895926 l 34.967564,5.555594 33.987163,0.3268 33.66037,-0.3268 18.62758,-4.248396 22.54917,-9.15039 -17.32038,-9.150391 -1.634,-16.993582 -9.80399,-25.817173 -19.28118,-10.4575897 z"
   id="path44" /><path
   style="fill:#342612;fill-opacity:1;stroke-width:1.43684"
   d="m 86.976148,116.99428 c -6.74683,8.16999 3.710759,7.35299 3.710759,7.35299 l -10.457589,0.3268 z"
   id="path45" /><path
   style="fill:#342612;fill-opacity:1;stroke-width:1.44803"
   d="m 108.23931,117.43799 c 6.85227,8.16999 -3.76872,7.35299 -3.76872,7.35299 l 10.62099,0.3268 z"
   id="path45-7" /></svg>
